<?xml version="1.0" encoding="utf-8"?>
<!-- Generator: Adobe Illustrator 26.0.2, SVG Export Plug-In . SVG Version: 6.00 Build 0)  -->
<svg version="1.1" id="レイヤー_1" xmlns="http://www.w3.org/2000/svg" xmlns:xlink="http://www.w3.org/1999/xlink" x="0px"
	 y="0px" viewBox="0 0 85 85" style="enable-background:new 0 0 85 85;" xml:space="preserve">
<style type="text/css">
	.st0{fill:#FFF000;stroke:#008742;stroke-width:1.875;stroke-miterlimit:10;}
	.st1{fill:none;stroke:#008742;stroke-width:1.875;stroke-linecap:round;stroke-linejoin:round;stroke-miterlimit:10;}
</style>
<g>
	<g>
		<g>
			<path class="st0" d="M58.2,33.7c0-0.2-0.3-0.4-0.5-0.4h-3.3c-0.2,0-0.5,0.2-0.5,0.4l-0.5,3.1c0,0.2-0.2,0.5-0.5,0.6l-1.8,1
				c-0.2,0.1-0.5,0.2-0.7,0.1l-3-1.1c-0.2-0.1-0.5,0-0.6,0.2l-1.7,2.9c-0.1,0.2-0.1,0.5,0.1,0.6l2.5,2c0.2,0.2,0.3,0.5,0.3,0.7V46
				c0,0.2-0.1,0.5-0.3,0.7l-2.5,2c-0.2,0.2-0.2,0.4-0.1,0.6l1.7,2.9c0.1,0.2,0.4,0.3,0.6,0.2l3-1.1c0.2-0.1,0.5,0,0.7,0.1l1.8,1
				c0.2,0.1,0.4,0.3,0.5,0.6l0.5,3.1c0,0.2,0.3,0.4,0.5,0.4h3.3c0.2,0,0.5-0.2,0.5-0.4l0.5-3.1c0-0.2,0.2-0.5,0.5-0.6l1.8-1
				c0.2-0.1,0.5-0.2,0.7-0.1l3,1.1c0.2,0.1,0.5,0,0.6-0.2l1.7-2.9c0.1-0.2,0.1-0.5-0.1-0.6l-2.5-2c-0.2-0.2-0.3-0.5-0.3-0.7V44
				c0-0.2,0.1-0.5,0.3-0.7l2.5-2c0.2-0.2,0.2-0.4,0.1-0.6l-1.7-2.9c-0.1-0.2-0.4-0.3-0.6-0.2l-3,1.1c-0.2,0.1-0.5,0-0.7-0.1l-1.8-1
				c-0.2-0.1-0.4-0.4-0.5-0.6L58.2,33.7z M57.8,41.2c0.5,0.2,0.9,0.6,1.3,1c0.4,0.4,0.7,0.9,0.8,1.4s0.3,1.1,0.2,1.6
				c0,0.5-0.2,1.1-0.4,1.6c-0.2,0.5-0.6,0.9-1,1.3s-0.9,0.7-1.4,0.8s-1.1,0.3-1.6,0.2c-0.5,0-1.1-0.2-1.6-0.4
				c-0.5-0.2-0.9-0.6-1.3-1c-0.4-0.4-0.7-0.9-0.8-1.4s-0.3-1.1-0.2-1.6c0-0.5,0.2-1.1,0.4-1.6c0.2-0.5,0.6-0.9,1-1.3s1-0.7,1-0.7
				c0.2-0.1,0.5-0.2,0.7-0.3c0,0,0.7-0.2,1.2-0.2C56.7,40.9,57.3,41,57.8,41.2z"/>
			<path class="st1" d="M34.5,66.4c-7.2,0-13-4.6-13-10.3c0-5.7,5.8-10.3,13-10.3"/>
			<path class="st1" d="M34.5,13.3c-7.2,0-13,4.6-13,10.3v32.6"/>
			<line class="st1" x1="34.5" y1="13.3" x2="34.5" y2="45.9"/>
			<polyline class="st1" points="34.4,23.6 74.3,23.6 74.3,66.4 34.5,66.4 			"/>
			<polyline class="st1" points="74.7,26.2 77,26.2 77,69.1 5.4,69.1 5.4,26.1 21.5,26.1 			"/>
			<polyline class="st1" points="77.4,28.9 79.6,28.9 79.6,71.7 8,71.7 8,69.1 			"/>
		</g>
	</g>
	<polyline class="st1" points="37.9,24.2 37.9,66.4 42.4,71.2 	"/>
</g>
</svg>
