<?xml version="1.0" encoding="utf-8"?>
<!-- Generator: Adobe Illustrator 26.0.2, SVG Export Plug-In . SVG Version: 6.00 Build 0)  -->
<svg version="1.1" id="レイヤー_1" xmlns="http://www.w3.org/2000/svg" xmlns:xlink="http://www.w3.org/1999/xlink" x="0px"
	 y="0px" viewBox="0 0 60 60" style="enable-background:new 0 0 60 60;" xml:space="preserve">
<style type="text/css">
	.st0{fill:none;stroke:#008742;stroke-width:1.5;stroke-linecap:round;stroke-linejoin:round;stroke-miterlimit:10;}
	.st1{fill:#FFF000;stroke:#008742;stroke-width:1.5;stroke-linecap:round;stroke-linejoin:round;stroke-miterlimit:10;}
</style>
<g>
	<g>
		<g>
			<g>
				<g>
					<g>
						<path class="st0" d="M30.1,16c-2,0-3.6-1.6-3.6-3.6c0-2,1.6-3.6,3.6-3.6c2,0,3.6,1.6,3.6,3.6S32.1,16,30.1,16z"/>
					</g>
				</g>
			</g>
		</g>
		<g>
			<path class="st0" d="M32.4,52.3c0.6,0,1-0.5,1.1-1l2.8-27.3c0-0.6,0.3-1.1,0.7-1.5l7.8-10.2c1.4-1.4,1.4-3.6,0-4.9l-9.9,9.9
				c-1.3,1.3-3.1,2-4.8,1.9l0,0l0,0c-1.7,0-3.5-0.6-4.8-1.9l-9.9-9.9c-1.4,1.4-1.4,3.6,0,4.9l7.8,10.2c0.4,0.4,0.6,1,0.7,1.5
				l2.8,27.3c0,0.6,0.5,1,1.1,1H32.4z"/>
			<g>
				<g>
					<g>
						<g>
							<path class="st1" d="M30.1,16c2,0,3.6-1.6,3.6-3.6c0-2-1.6-3.6-3.6-3.6c-2,0-3.6,1.6-3.6,3.6C26.5,14.4,28.1,16,30.1,16z"/>
						</g>
					</g>
				</g>
			</g>
		</g>
	</g>
</g>
</svg>
