<?xml version="1.0" encoding="utf-8"?>
<!-- Generator: Adobe Illustrator 26.0.2, SVG Export Plug-In . SVG Version: 6.00 Build 0)  -->
<svg version="1.1" id="レイヤー_1" xmlns="http://www.w3.org/2000/svg" xmlns:xlink="http://www.w3.org/1999/xlink" x="0px"
	 y="0px" viewBox="0 0 60 60" style="enable-background:new 0 0 60 60;" xml:space="preserve">
<style type="text/css">
	.st0{fill:#FFFFFF;stroke:#008742;stroke-width:1.5;stroke-linecap:round;stroke-linejoin:round;stroke-miterlimit:10;}
	.st1{fill:none;stroke:#008742;stroke-width:1.5;stroke-linecap:round;stroke-linejoin:round;stroke-miterlimit:10;}
	.st2{fill:#FFFFFF;stroke:#008742;stroke-width:1.5;stroke-miterlimit:10;}
	.st3{fill:#FFFFFF;stroke:#FFFFFF;stroke-width:1.5;stroke-miterlimit:10;}
	.st4{fill:#FFF000;stroke:#008742;stroke-width:1.5;stroke-linecap:round;stroke-linejoin:round;stroke-miterlimit:9.9999;}
</style>
<g>
	<g>
		<g>
			<rect x="5.7" y="10.1" class="st0" width="31.4" height="39.7"/>
			<g>
				<line class="st1" x1="12.9" y1="10.1" x2="29.7" y2="10.1"/>
				<line class="st1" x1="12.9" y1="18.1" x2="29.7" y2="18.1"/>
				<line class="st1" x1="12.9" y1="26" x2="29.7" y2="26"/>
				<line class="st1" x1="12.9" y1="34" x2="29.7" y2="34"/>
				<line class="st1" x1="12.9" y1="41.9" x2="29.7" y2="41.9"/>
				<line class="st1" x1="29.7" y1="49.9" x2="12.9" y2="49.9"/>
			</g>
			<g>
				<g>
					<g>
						<path class="st2" d="M31,39.7c-0.3,0-0.6-0.1-0.9-0.4l-4.5-4.5c-0.5-0.5-0.5-1.2,0-1.7l20.9-20.9c0.2-0.2,0.5-0.4,0.9-0.4l0,0
							c0.3,0,0.6,0.1,0.9,0.4l4.5,4.5c0.5,0.5,0.5,1.2,0,1.7L31.9,39.3C31.6,39.6,31.3,39.7,31,39.7L31,39.7z"/>
						<path class="st3" d="M47.4,13.1l4.5,4.5L31,38.5L26.5,34L47.4,13.1 M47.4,10.6c-0.6,0-1.2,0.2-1.7,0.7L24.8,32.3
							c-0.5,0.5-0.7,1.1-0.7,1.7s0.3,1.3,0.7,1.7l4.5,4.5c0.5,0.5,1.1,0.7,1.7,0.7s1.2-0.2,1.7-0.7l20.9-20.9
							c0.5-0.5,0.7-1.1,0.7-1.7s-0.3-1.3-0.7-1.7l-4.5-4.5C48.7,10.9,48,10.6,47.4,10.6L47.4,10.6z"/>
					</g>
					<g>
						<path class="st2" d="M23.2,43c-0.3,0-0.6-0.1-0.9-0.4c-0.3-0.3-0.5-0.9-0.3-1.3l3.3-7.8c0.2-0.4,0.5-0.6,0.9-0.7
							c0.1,0,0.2,0,0.2,0c0.3,0,0.6,0.1,0.9,0.4l4.5,4.5c0.3,0.3,0.4,0.7,0.3,1.1c-0.1,0.4-0.3,0.7-0.7,0.9l-7.8,3.3
							C23.5,43,23.4,43,23.2,43z"/>
						<path class="st3" d="M26.5,34l4.5,4.5l-7.8,3.3L26.5,34 M26.5,31.5c-0.2,0-0.3,0-0.5,0c-0.8,0.2-1.5,0.7-1.8,1.4l-3.3,7.8
							c-0.4,0.9-0.2,2,0.5,2.7c0.5,0.5,1.1,0.7,1.7,0.7c0.3,0,0.7-0.1,1-0.2l7.8-3.3c0.8-0.3,1.3-1,1.4-1.8s-0.1-1.6-0.7-2.2
							l-4.5-4.5C27.8,31.8,27.2,31.5,26.5,31.5L26.5,31.5z"/>
					</g>
				</g>
				
					<rect x="24.4" y="22.6" transform="matrix(0.7071 -0.7071 0.7071 0.7071 -6.7491 35.2677)" class="st4" width="29.6" height="6.3"/>
				<line class="st1" x1="44.1" y1="16.4" x2="48.5" y2="20.9"/>
				<polygon class="st0" points="23.2,41.8 31,38.5 26.5,34 				"/>
			</g>
			<polyline class="st3" points="32.2,45 31.9,40.3 25.5,42.9 25.2,45 			"/>
		</g>
	</g>
</g>
</svg>
