<?xml version="1.0" encoding="utf-8"?>
<!-- Generator: Adobe Illustrator 26.0.2, SVG Export Plug-In . SVG Version: 6.00 Build 0)  -->
<svg version="1.1" id="レイヤー_1" xmlns="http://www.w3.org/2000/svg" xmlns:xlink="http://www.w3.org/1999/xlink" x="0px"
	 y="0px" viewBox="0 0 60 60" style="enable-background:new 0 0 60 60;" xml:space="preserve">
<style type="text/css">
	.st0{fill:none;stroke:#008742;stroke-width:1.5;stroke-linecap:round;stroke-linejoin:round;stroke-miterlimit:10;}
	.st1{fill:#FFFFFF;stroke:#008742;stroke-width:1.5;stroke-miterlimit:10;}
	.st2{fill:#FFF000;stroke:#008742;stroke-width:1.5;stroke-linecap:round;stroke-linejoin:round;stroke-miterlimit:10;}
</style>
<g>
	<g>
		<polyline class="st0" points="16.4,29.2 26.3,21.3 35.7,26 47.9,13.8 		"/>
		<ellipse class="st1" cx="16.4" cy="29.2" rx="2.9" ry="3"/>
		<path class="st1" d="M29,21.3c0,1.7-1.3,3-2.9,3s-2.9-1.3-2.9-3c0-1.7,1.3-3,2.9-3C27.7,18.3,29,19.7,29,21.3z"/>
		<path class="st1" d="M38.6,26c0,1.7-1.3,3-2.9,3s-2.9-1.3-2.9-3c0-1.7,1.3-3,2.9-3C37.3,23,38.6,24.3,38.6,26z"/>
		<rect x="13.8" y="36.7" class="st2" width="5.2" height="9.7"/>
		<rect x="33.1" y="33.5" class="st2" width="5.2" height="13"/>
		<rect x="23.5" y="28.8" class="st2" width="5.2" height="17.7"/>
		<rect x="42.7" y="23.8" class="st2" width="5.2" height="22.6"/>
		<polyline class="st0" points="9,8.6 9,50.9 51.2,50.9 		"/>
		<polyline class="st0" points="42.7,13.7 47.9,13.7 47.9,18.9 		"/>
	</g>
</g>
</svg>
