<?xml version="1.0" encoding="utf-8"?>
<!-- Generator: Adobe Illustrator 26.0.2, SVG Export Plug-In . SVG Version: 6.00 Build 0)  -->
<svg version="1.1" id="レイヤー_1" xmlns="http://www.w3.org/2000/svg" xmlns:xlink="http://www.w3.org/1999/xlink" x="0px"
	 y="0px" viewBox="0 0 60 60" style="enable-background:new 0 0 60 60;" xml:space="preserve">
<style type="text/css">
	.st0{fill:none;stroke:#008742;stroke-width:1.5;stroke-linecap:round;stroke-linejoin:round;stroke-miterlimit:10;}
	.st1{fill:#FFFFFF;stroke:#008742;stroke-width:1.5;stroke-linecap:round;stroke-linejoin:round;stroke-miterlimit:10;}
	.st2{fill:#FFF000;stroke:#008742;stroke-width:1.5;stroke-linecap:round;stroke-linejoin:round;stroke-miterlimit:10;}
</style>
<g>
	<g>
		<g>
			<polyline class="st0" points="25.5,26.7 30.3,16.9 34.5,26.7 			"/>
			<g>
				<g>
					<path class="st0" d="M20.7,27.4l0-11.4c0-5.4,4.2-9.7,9.3-9.7s9.3,4.4,9.3,9.7v11.4"/>
				</g>
				<path class="st1" d="M35.7,16.1c0,5.1-2.6,9.2-5.7,9.2s-5.7-4.1-5.7-9.2"/>
				<path class="st0" d="M35.7,16.1c-0.7,0.2-1.5,0.3-2.3,0.3c-3.2,0-6-1.7-7.1-4.1"/>
			</g>
			<path class="st0" d="M25.5,26.7l-7.4,1c-2.2,0.5-3.8,1.6-4.6,3.4L9,42.8c-1.3,2.7-0.6,5,1.7,6.5l4.2,1.9"/>
			<path class="st0" d="M34.5,26.7l7.4,1c2.2,0.5,3.8,1.6,4.6,3.4L51,42.8c1.3,2.7,0.6,5-1.7,6.5l-4.2,1.9"/>
		</g>
		<g>
			<line class="st0" x1="9.2" y1="53.8" x2="50.8" y2="53.8"/>
		</g>
		<path class="st2" d="M44.8,53.8H15.2V35.4c0-1.3,1.1-2.4,2.4-2.4h24.8c1.3,0,2.4,1.1,2.4,2.4L44.8,53.8L44.8,53.8z"/>
	</g>
</g>
</svg>
