<?xml version="1.0" encoding="utf-8"?>
<!-- Generator: Adobe Illustrator 26.0.2, SVG Export Plug-In . SVG Version: 6.00 Build 0)  -->
<svg version="1.1" id="レイヤー_1" xmlns="http://www.w3.org/2000/svg" xmlns:xlink="http://www.w3.org/1999/xlink" x="0px"
	 y="0px" viewBox="0 0 85 85" style="enable-background:new 0 0 85 85;" xml:space="preserve">
<style type="text/css">
	.st0{fill:none;stroke:#008742;stroke-width:1.875;stroke-linejoin:round;stroke-miterlimit:10;}
	.st1{fill:#FFF000;stroke:#008742;stroke-width:1.875;stroke-linejoin:round;stroke-miterlimit:10;}
	.st2{fill:#FFFFFF;stroke:#FFFFFF;stroke-miterlimit:10;}
	.st3{fill:none;stroke:#008742;stroke-width:1.875;stroke-miterlimit:10;}
	.st4{fill:none;stroke:#008742;stroke-width:1.875;stroke-linecap:round;stroke-linejoin:round;stroke-miterlimit:10;}
</style>
<g>
	<polyline class="st0" points="75.4,16.8 75.4,53.7 29.3,53.7 	"/>
	<polyline class="st0" points="24.1,11.6 78,11.6 78,16.8 24.1,16.8 	"/>
	<path class="st1" d="M55.7,27.4c-5.1,0-9.2,4.1-9.2,9.2s4.1,9.2,9.2,9.2s9.2-4.1,9.2-9.2h-9.2V27.4z"/>
	<path class="st1" d="M59.6,23.4v9.2h9.2C68.8,27.5,64.7,23.4,59.6,23.4z"/>
	<line class="st0" x1="35.9" y1="45.8" x2="45.1" y2="45.8"/>
	<path class="st2" d="M25.3,10.3H12.4c-1.7,1.7-2.8,4-2.8,6.6c0,6,4,10.5,9.2,10.5S28,22.8,28,16.8C28,14.3,27,11.9,25.3,10.3z"/>
	<line class="st3" x1="18.8" y1="74.7" x2="18.8" y2="48.4"/>
	<path class="st4" d="M24.1,16.8c0,4-2.4,6.6-5.3,6.6c-2.9,0-5.3-2.6-5.3-6.6c0-2.9,2.4-5.3,5.3-5.3C21.7,11.6,24.1,13.9,24.1,16.8z
		"/>
	<path class="st4" d="M12.2,33.9v40.8h13.2v-41l5.1,5.1c1.5,1.5,4,1.5,5.6,0l5.6-5.5c0.9-0.9,1.2-2.4,0.4-3.5c-1-1.4-2.9-1.5-4-0.3
		l-4.7,4.7l-5.1-5.1c-0.3-0.4-0.7-0.7-1.1-1c-1.2-0.8-3.7-2.1-8.3-2.1c-2.6,0-5,0.4-7,0.9C9,27.7,7,30.3,7,33.3v12.5
		c0,2.2,1.8,4,4,4h1.3"/>
</g>
</svg>
