<?xml version="1.0" encoding="utf-8"?>
<!-- Generator: Adobe Illustrator 26.0.2, SVG Export Plug-In . SVG Version: 6.00 Build 0)  -->
<svg version="1.1" id="レイヤー_1" xmlns="http://www.w3.org/2000/svg" xmlns:xlink="http://www.w3.org/1999/xlink" x="0px"
	 y="0px" viewBox="0 0 60 60" style="enable-background:new 0 0 60 60;" xml:space="preserve">
<style type="text/css">
	.st0{fill:#008742;}
	.st1{fill:none;stroke:#008742;stroke-width:1.5;stroke-linecap:round;stroke-linejoin:round;stroke-miterlimit:10;}
	.st2{fill:#FFFFFF;stroke:#008742;stroke-width:1.5;stroke-linecap:round;stroke-linejoin:round;stroke-miterlimit:10;}
	.st3{fill:#FFF000;stroke:#008742;stroke-width:1.5;stroke-linecap:round;stroke-linejoin:round;stroke-miterlimit:10;}
</style>
<g>
	<g>
		<g>
			<path class="st0" d="M44.2,29.2c0,0.7-0.5,1.2-1.2,1.2c-0.7,0-1.2-0.5-1.2-1.2c0-0.7,0.5-1.2,1.2-1.2
				C43.6,28,44.2,28.5,44.2,29.2z"/>
			<path class="st1" d="M53.1,31.9L49,30.7c-0.9-2.8-2.8-5.2-5.5-7c0.3-1.3,1-2.7,1.8-3.9c0.5-0.6,0.2-1.5-0.6-1.7
				c-3.4-0.7-6.5,0.4-8.4,2.4c-1.9-0.5-3.8-0.7-5.9-0.7c-10.6,0-19.2,6.4-19.2,14.3c0,4.3,2.6,8.2,6.7,10.8l2.7,7.3h3.8l2.1-4.1
				c1.2,0.2,2.5,0.3,3.8,0.3c1.3,0,2.6-0.1,3.8-0.3l2.1,4.1h3.8l2.7-7.3c2.1-1.3,3.8-3,4.9-4.9l5.3-1.4L53.1,31.9L53.1,31.9z"/>
			<path class="st1" d="M24.1,47.6c0.8,0.2,1.6,0.4,2.4,0.5"/>
			<path class="st1" d="M10.8,22.8c0,0-0.1,0-0.1,0s-0.1,0.1-0.1,0.1c0,0-0.1,0.1-0.1,0.1c0,0,0,0.1,0,0.2s0,0.2,0,0.2
				c0,0.1,0.1,0.2,0.1,0.2c0,0,0.2,0.1,0.2,0.2c0.1,0,0.2,0.1,0.3,0.1s0.2,0,0.3,0s0.2,0,0.4-0.1c0.1,0,0.2-0.1,0.3-0.2
				c0.1-0.1,0.2-0.2,0.3-0.3c0.1-0.1,0.2-0.3,0.2-0.5c0-0.2,0.1-0.3,0.1-0.5s0-0.4-0.1-0.5s-0.1-0.4-0.2-0.5
				c-0.1-0.2-0.2-0.3-0.4-0.5c-0.2-0.1-0.3-0.3-0.5-0.4s-0.4-0.2-0.7-0.2c-0.2,0-0.5-0.1-0.7,0s-0.5,0.1-0.8,0.2
				c-0.2,0.1-0.5,0.2-0.7,0.4c-0.2,0.2-0.4,0.4-0.6,0.6c-0.2,0.2-0.3,0.5-0.5,0.8c-0.1,0.3-0.2,0.6-0.3,0.9s0,0.6,0,1s0.1,0.7,0.2,1
				s0.3,0.6,0.5,0.9s0.5,0.5,0.8,0.8c0.3,0.2,0.6,0.4,1,0.5s0.7,0.2,1.1,0.3c0.4,0,0.8,0,1.2,0s0.8-0.2,1.2-0.3
				c0.4-0.2,0.8-0.4,1.1-0.7c0.2-0.1,0.3-0.3,0.5-0.4"/>
			<path class="st1" d="M39.5,46.7c1.2-0.5,2.4-1.1,3.4-1.8"/>
			<path class="st1" d="M39,21.3c-0.9-0.3-1.8-0.6-2.7-0.9"/>
			<g>
				<g>
					<path class="st2" d="M33.5,15.1c0,4.3-3.5,7.8-7.8,7.8c-4.3,0-7.8-3.5-7.8-7.8c0-4.3,3.5-7.8,7.8-7.8S33.5,10.8,33.5,15.1z"/>
					<path class="st3" d="M33.5,15.1c0,4.3-3.5,7.8-7.8,7.8c-4.3,0-7.8-3.5-7.8-7.8c0-4.3,3.5-7.8,7.8-7.8S33.5,10.8,33.5,15.1z"/>
				</g>
				<g>
					<path class="st1" d="M28,13.1c-0.8-2-4.1-1.8-4.2,0.3c0,0.9,1.1,1.4,2,1.5c3.3,0.5,2.4,3.7,0,3.5c-1.8-0.1-2.3-1.3-2.4-1.6"/>
					<line class="st1" x1="25.9" y1="10.1" x2="25.9" y2="11.8"/>
					<line class="st1" x1="25.9" y1="18.5" x2="25.9" y2="20.2"/>
				</g>
			</g>
			<g>
				<path class="st1" d="M34,23.6c-1-0.1-2-0.2-3-0.2c-3.8,0-7.3,1-10,2.7"/>
			</g>
			<g>
				<path class="st1" d="M34,23.6c-1-0.1-2-0.2-3-0.2c-3.8,0-7.3,1-10,2.7"/>
			</g>
		</g>
	</g>
</g>
</svg>
