<?xml version="1.0" encoding="utf-8"?>
<!-- Generator: Adobe Illustrator 26.0.2, SVG Export Plug-In . SVG Version: 6.00 Build 0)  -->
<svg version="1.1" id="レイヤー_1" xmlns="http://www.w3.org/2000/svg" xmlns:xlink="http://www.w3.org/1999/xlink" x="0px"
	 y="0px" viewBox="0 0 60 60" style="enable-background:new 0 0 60 60;" xml:space="preserve">
<style type="text/css">
	.st0{fill:none;stroke:#008742;stroke-width:1.5;stroke-linecap:round;stroke-linejoin:round;stroke-miterlimit:10;}
	.st1{fill:#FFF000;}
	.st2{fill:none;stroke:#008742;stroke-width:1.5;stroke-linecap:square;stroke-linejoin:bevel;stroke-miterlimit:10;}
	.st3{fill:none;stroke:#008742;stroke-width:1.5;stroke-linecap:round;stroke-linejoin:bevel;stroke-miterlimit:10;}
	.st4{fill:#FFFFFF;stroke:#008742;stroke-width:1.5;stroke-linecap:round;stroke-linejoin:round;stroke-miterlimit:10;}
	.st5{fill:#FFFFFF;stroke:#008742;stroke-width:1.5;stroke-linecap:square;stroke-linejoin:bevel;stroke-miterlimit:10;}
</style>
<g>
	<g>
		<g>
			<g>
				<line class="st0" x1="32.5" y1="41.7" x2="19.4" y2="41.7"/>
				<g>
					<g>
						<path class="st1" d="M45.4,32.7c0,1.9-1.5,3.4-3.4,3.4H9.9c-1.9,0-3.4-1.5-3.4-3.4V11.8c0-1.9,1.5-3.4,3.4-3.4H42
							c1.9,0,3.4,1.5,3.4,3.4V32.7z"/>
						<path class="st0" d="M45.4,32.7c0,1.9-1.5,3.4-3.4,3.4H9.9c-1.9,0-3.4-1.5-3.4-3.4V11.8c0-1.9,1.5-3.4,3.4-3.4H42
							c1.9,0,3.4,1.5,3.4,3.4V32.7z"/>
					</g>
					<g>
						<line class="st0" x1="45.4" y1="31.3" x2="6.5" y2="31.3"/>
					</g>
				</g>
			</g>
			<line class="st0" x1="26" y1="36.2" x2="26" y2="41.7"/>
		</g>
		<g>
			<g>
				<g>
					<path class="st0" d="M29.2,15.7c0,1.8-1.5,3.3-3.3,3.3c-1.8,0-3.3-1.5-3.3-3.3c0-1.8,1.5-3.3,3.3-3.3
						C27.8,12.4,29.2,13.8,29.2,15.7z"/>
					<path class="st2" d="M32.8,28.3v-4.2c0-1.5-1.2-2.7-2.7-2.7h-8.4c-1.5,0-2.7,1.2-2.7,2.7v4.2"/>
					<line class="st3" x1="22.9" y1="25.7" x2="22.9" y2="28.3"/>
					<line class="st3" x1="29.1" y1="28.3" x2="29.1" y2="25.7"/>
				</g>
				<line class="st2" x1="22.9" y1="26.7" x2="22.9" y2="28.3"/>
				<line class="st2" x1="29.1" y1="28.3" x2="29.1" y2="26.7"/>
			</g>
			<g>
				<g>
					<circle class="st4" cx="42.4" cy="27.5" r="5.4"/>
					<path class="st5" d="M53.7,51.2V40.4c0-2.4-2-4.4-4.4-4.4H35.4c-2.4,0-4.4,2-4.4,4.4v10.8"/>
					<circle class="st0" cx="42.4" cy="27.5" r="5.4"/>
					<path class="st2" d="M53.7,51.2V40.4c0-2.4-2-4.4-4.4-4.4H35.4c-2.4,0-4.4,2-4.4,4.4v10.8"/>
					<line class="st3" x1="36.2" y1="43" x2="36.2" y2="51.2"/>
					<line class="st3" x1="48.6" y1="51.2" x2="48.6" y2="43"/>
				</g>
				<line class="st2" x1="36.2" y1="44.6" x2="36.2" y2="51.2"/>
				<line class="st2" x1="48.6" y1="51.2" x2="48.6" y2="44.6"/>
			</g>
		</g>
	</g>
</g>
</svg>
