<?xml version="1.0" encoding="utf-8"?>
<!-- Generator: Adobe Illustrator 26.0.2, SVG Export Plug-In . SVG Version: 6.00 Build 0)  -->
<svg version="1.1" id="レイヤー_1" xmlns="http://www.w3.org/2000/svg" xmlns:xlink="http://www.w3.org/1999/xlink" x="0px"
	 y="0px" viewBox="0 0 60 60" style="enable-background:new 0 0 60 60;" xml:space="preserve">
<style type="text/css">
	.st0{fill:none;stroke:#008742;stroke-width:1.5;stroke-linecap:round;stroke-linejoin:round;stroke-miterlimit:10;}
	.st1{fill:#FFF000;}
	.st2{fill:none;stroke:#008742;stroke-width:1.5;stroke-linecap:square;stroke-linejoin:bevel;stroke-miterlimit:10;}
	.st3{fill:none;stroke:#008742;stroke-width:1.5;stroke-linecap:round;stroke-linejoin:bevel;stroke-miterlimit:10;}
</style>
<g>
	<g>
		<g>
			<g>
				<rect x="27.2" y="42.8" class="st0" width="5.8" height="6.3"/>
				<line class="st0" x1="37.8" y1="49.1" x2="22.5" y2="49.1"/>
				<g>
					<g>
						<path class="st1" d="M52.7,39.7c0,1.7-1.4,3.1-3.1,3.1h-39c-1.7,0-3.1-1.4-3.1-3.1v-26c0-1.7,1.4-3.1,3.1-3.1h39
							c1.7,0,3.1,1.4,3.1,3.1V39.7z"/>
						<path class="st0" d="M52.7,39.7c0,1.7-1.4,3.1-3.1,3.1h-39c-1.7,0-3.1-1.4-3.1-3.1v-26c0-1.7,1.4-3.1,3.1-3.1h39
							c1.7,0,3.1,1.4,3.1,3.1V39.7z"/>
					</g>
					<g>
						<line class="st0" x1="52.7" y1="37.2" x2="7.5" y2="37.2"/>
					</g>
				</g>
			</g>
			<g>
				<g>
					<path class="st0" d="M34,17.9c0,2.1-1.7,3.9-3.9,3.9s-3.9-1.7-3.9-3.9S28,14,30.1,14S34,15.8,34,17.9z"/>
					<path class="st2" d="M38.2,33.7v-5.8c0-1.7-1.4-3.1-3.1-3.1h-9.9c-1.7,0-3.1,1.4-3.1,3.1v5.8"/>
					<line class="st3" x1="26.3" y1="29.7" x2="26.3" y2="33.7"/>
					<line class="st3" x1="33.9" y1="33.7" x2="33.9" y2="29.7"/>
				</g>
				<line class="st2" x1="26.3" y1="30.9" x2="26.3" y2="33.7"/>
				<line class="st2" x1="33.9" y1="33.7" x2="33.9" y2="30.9"/>
			</g>
		</g>
	</g>
</g>
</svg>
