<?xml version="1.0" encoding="utf-8"?>
<!-- Generator: Adobe Illustrator 26.0.2, SVG Export Plug-In . SVG Version: 6.00 Build 0)  -->
<svg version="1.1" id="レイヤー_1" xmlns="http://www.w3.org/2000/svg" xmlns:xlink="http://www.w3.org/1999/xlink" x="0px"
	 y="0px" viewBox="0 0 70 20" style="enable-background:new 0 0 70 20;" xml:space="preserve">
<style type="text/css">
	.st0{fill:#FFFFFF;}
</style>
<g>
	<g>
		<polygon class="st0" points="5.66,7.69 2.12,7.69 7.51,0 11.05,0 		"/>
		<polygon class="st0" points="3.54,20 0,20 8.61,7.69 12.15,7.69 		"/>
		<g>
			<path class="st0" d="M23.97,4.71c-0.58-0.52-1.24-1.07-2.06-1.07c-0.85,0-1.53,0.58-1.53,1.46c0,0.5,0.09,0.95,1.38,1.73
				l0.75,0.46c1.75,1.07,2.22,1.57,2.22,2.69c0,1.71-1.14,2.73-2.81,2.73c-1.23,0-2.14-0.6-2.88-1.55l0.77-0.61
				c0.46,0.74,1.2,1.32,2.12,1.32c0.99,0,1.81-0.74,1.81-1.76c0-0.77-0.05-1.03-1.73-2.04l-0.86-0.52c-0.94-0.56-1.76-1.2-1.76-2.39
				c0-1.5,1.14-2.36,2.57-2.36c0.99,0,1.91,0.53,2.62,1.19L23.97,4.71z"/>
			<path class="st0" d="M59.99,3.82h-4.48v3.39h4.05v0.83h-4.05v3.64h4.69v0.83h-5.69V2.98h5.47L59.99,3.82L59.99,3.82z"/>
			<rect x="66.37" y="2.99" class="st0" width="0.99" height="9.53"/>
			<path class="st0" d="M45.52,12.67c-1.52,0-2.76-1.24-2.76-2.76v-0.5c0-1.61,0-6.61,0-6.61h0.99v7.03c0,0.03,0,0.05,0,0.08l0,0
				c0,0.98,0.79,1.77,1.77,1.77s1.77-0.79,1.77-1.77V2.8h0.99v7.11C48.28,11.43,47.04,12.67,45.52,12.67z"/>
			<path class="st0" d="M33.71,12.67c-1.52,0-2.76-1.24-2.76-2.76V5.56c0-1.52,1.24-2.76,2.76-2.76s2.76,1.24,2.76,2.76v4.35
				C36.47,11.43,35.23,12.67,33.71,12.67z M33.71,3.79c-0.98,0-1.77,0.79-1.77,1.77v4.35c0,0.98,0.79,1.77,1.77,1.77
				s1.77-0.79,1.77-1.77V5.56C35.48,4.58,34.68,3.79,33.71,3.79z"/>
		</g>
	</g>
</g>
</svg>
