<?xml version="1.0" encoding="utf-8"?>
<!-- Generator: Adobe Illustrator 26.0.2, SVG Export Plug-In . SVG Version: 6.00 Build 0)  -->
<svg version="1.1" id="レイヤー_1" xmlns="http://www.w3.org/2000/svg" xmlns:xlink="http://www.w3.org/1999/xlink" x="0px"
	 y="0px" viewBox="0 0 85 85" style="enable-background:new 0 0 85 85;" xml:space="preserve">
<style type="text/css">
	.st0{fill:none;stroke:#008742;stroke-width:1.875;stroke-linecap:round;stroke-linejoin:round;stroke-miterlimit:10;}
	.st1{fill:#FFF000;stroke:#008742;stroke-width:1.875;stroke-linecap:round;stroke-linejoin:round;stroke-miterlimit:10;}
	.st2{fill:#FFF000;stroke:#008742;stroke-width:1.875;stroke-linecap:square;stroke-linejoin:bevel;stroke-miterlimit:10;}
	.st3{fill:none;stroke:#008742;stroke-width:1.875;stroke-linecap:round;stroke-linejoin:bevel;stroke-miterlimit:10;}
	.st4{fill:none;stroke:#008742;stroke-width:1.875;stroke-linecap:square;stroke-linejoin:bevel;stroke-miterlimit:10;}
</style>
<g>
	<g>
		<g>
			<g>
				<rect x="38.2" y="61.9" class="st0" width="8.7" height="9.4"/>
				<line class="st0" x1="53.9" y1="71.2" x2="31.1" y2="71.2"/>
				<g>
					<g>
						<path class="st0" d="M76.2,57.2c0,2.6-2.1,4.7-4.7,4.7H13.5c-2.6,0-4.7-2.1-4.7-4.7V18.4c0-2.6,2.1-4.7,4.7-4.7h58.1
							c2.6,0,4.7,2.1,4.7,4.7V57.2z"/>
					</g>
					<g>
						<line class="st0" x1="76.2" y1="53.5" x2="8.8" y2="53.5"/>
					</g>
				</g>
			</g>
			<g>
				<g>
					<path class="st1" d="M48.3,24.8c0,3.2-2.6,5.8-5.8,5.8c-3.2,0-5.8-2.6-5.8-5.8c0-3.2,2.6-5.8,5.8-5.8S48.3,21.6,48.3,24.8z"/>
					<path class="st2" d="M54.6,48.3v-8.7c0-2.6-2.1-4.7-4.7-4.7H35.1c-2.6,0-4.7,2.1-4.7,4.7v8.7"/>
					<line class="st3" x1="36.9" y1="42.4" x2="36.9" y2="48.3"/>
					<line class="st3" x1="48.1" y1="48.3" x2="48.1" y2="42.4"/>
				</g>
				<line class="st4" x1="36.9" y1="44.1" x2="36.9" y2="48.3"/>
				<line class="st4" x1="48.1" y1="48.3" x2="48.1" y2="44.1"/>
			</g>
		</g>
	</g>
</g>
</svg>
