<?xml version="1.0" encoding="utf-8"?>
<!-- Generator: Adobe Illustrator 26.0.2, SVG Export Plug-In . SVG Version: 6.00 Build 0)  -->
<svg version="1.1" id="レイヤー_1" xmlns="http://www.w3.org/2000/svg" xmlns:xlink="http://www.w3.org/1999/xlink" x="0px"
	 y="0px" viewBox="0 0 72.02 66.67" style="enable-background:new 0 0 72.02 66.67;" xml:space="preserve">
<style type="text/css">
	.st0{fill:none;stroke:#008742;stroke-width:1.6404;stroke-linecap:round;stroke-linejoin:round;stroke-miterlimit:10;}
	.st1{clip-path:url(#SVGID_00000029737225078502950640000013572906217314252430_);}
	.st2{fill:#FFFFFF;stroke:#FFFFFF;stroke-width:0.8749;stroke-miterlimit:10;}
	.st3{fill:#FFFFFF;stroke:#008742;stroke-width:1.6404;stroke-linecap:round;stroke-linejoin:round;stroke-miterlimit:10;}
	.st4{fill:none;stroke:#008742;stroke-width:1.6404;stroke-miterlimit:10;}
	.st5{fill:none;stroke:#008742;stroke-width:0.8;stroke-linecap:round;stroke-linejoin:round;stroke-miterlimit:10;}
</style>
<g>
	<g>
		<g>
			<g>
				<rect x="26.51" y="57.67" class="st0" width="7.59" height="8.18"/>
				<line class="st0" x1="40.27" y1="65.85" x2="20.34" y2="65.85"/>
				<g>
					<g>
						<path class="st0" d="M59.79,53.59c0,2.24-1.83,4.07-4.07,4.07H4.89c-2.24,0-4.07-1.83-4.07-4.07V19.66
							c0-2.24,1.83-4.07,4.07-4.07h50.82c2.24,0,4.07,1.83,4.07,4.07V53.59z"/>
					</g>
					<g>
						<line class="st0" x1="59.79" y1="50.38" x2="0.82" y2="50.38"/>
					</g>
				</g>
			</g>
		</g>
	</g>
</g>
<g>
	<defs>
		<rect id="SVGID_1_" x="24.13" width="47.89" height="47.89"/>
	</defs>
	<clipPath id="SVGID_00000094600352733174162390000000640632985785066935_">
		<use xlink:href="#SVGID_1_"  style="overflow:visible;"/>
	</clipPath>
	<g style="clip-path:url(#SVGID_00000094600352733174162390000000640632985785066935_);">
		<path class="st2" d="M51.52,6.16H40.26c-1.5,1.46-2.43,3.5-2.43,5.76c0,5.25,3.46,9.21,8.06,9.21s8.06-3.96,8.06-9.21
			C53.95,9.66,53.02,7.62,51.52,6.16z"/>
		<path class="st0" d="M50.5,11.92c0,3.45-2.06,5.76-4.61,5.76s-4.61-2.3-4.61-5.76c0-2.54,2.06-4.61,4.61-4.61
			S50.5,9.37,50.5,11.92z"/>
		<path class="st3" d="M40.13,26.88v35.69h11.51V26.69l4.47,4.47c1.35,1.35,3.54,1.35,4.88,0l4.88-4.86
			c0.81-0.81,1.01-2.12,0.34-3.05c-0.85-1.19-2.52-1.28-3.51-0.3l-4.15,4.13l-4.44-4.44c-0.28-0.33-0.59-0.62-0.95-0.85
			c-1.03-0.68-3.21-1.81-7.23-1.81c-2.27,0-4.38,0.36-6.1,0.8c-2.54,0.65-4.31,2.95-4.31,5.57v10.89c0,1.91,1.55,3.45,3.45,3.45
			h1.15"/>
		<line class="st4" x1="45.89" y1="62.57" x2="45.89" y2="39.55"/>
	</g>
</g>
<line class="st5" x1="63.5" y1="25.43" x2="68.59" y2="31.1"/>
<line class="st5" x1="61.21" y1="27.49" x2="65.67" y2="32.41"/>
<line class="st0" x1="61.72" y1="33.1" x2="69.68" y2="28.52"/>
</svg>
